# Blender v2.82 (sub 3) OBJ File: 'GarbageCan.blend'
# www.blender.org
mtllib GarbageCan.mtl
o Plane
v 0.111381 0.343858 -0.071424
v -0.111073 0.000000 0.029795
v 0.118198 0.343858 -0.066980
v -0.111073 0.000000 -0.029795
v 0.123200 0.343858 -0.060562
v 0.125626 0.343858 -0.053145
v -0.112257 0.000000 0.016125
v -0.123200 0.343858 -0.060562
v -0.118198 0.343858 -0.066980
v -0.111381 0.343858 -0.071424
v -0.103786 0.343858 -0.073216
v -0.125626 0.343858 -0.053145
v 0.125626 0.343858 0.053145
v 0.123200 0.343858 0.060562
v 0.118198 0.343858 0.066980
v -0.112257 0.000000 -0.016125
v -0.112672 0.000000 0.000000
v 0.111381 0.343858 0.071424
v 0.103786 0.343858 0.073216
v -0.103786 0.343858 0.073216
v 0.111073 0.000000 -0.029795
v -0.111381 0.343858 0.071424
v 0.111073 0.000000 0.029795
v -0.129426 0.343858 -0.018591
v -0.118198 0.343858 0.066980
v 0.112257 0.000000 -0.016125
v -0.128061 0.343858 -0.034352
v -0.123200 0.343858 0.060562
v -0.125626 0.343858 0.053145
v 0.129426 0.343858 0.018591
v 0.128061 0.343858 0.034352
v 0.129905 0.343858 0.000000
v 0.128061 0.343858 -0.034352
v 0.129426 0.343858 -0.018591
v 0.112257 0.000000 0.016125
v 0.112672 0.000000 0.000000
v -0.129905 0.343858 0.000000
v -0.128061 0.343858 0.034352
v -0.129426 0.343858 0.018591
v -0.108961 0.000000 0.046095
v -0.090018 0.000000 0.063503
v -0.106857 0.000000 0.052528
v -0.102518 0.000000 0.058095
v -0.096605 0.000000 0.061949
v 0.108961 0.000000 0.046095
v 0.090018 0.000000 0.063503
v 0.106857 0.000000 0.052528
v 0.102518 0.000000 0.058095
v 0.096605 0.000000 0.061949
v -0.108961 0.000000 -0.046095
v -0.090018 0.000000 -0.063503
v -0.106857 0.000000 -0.052528
v -0.102518 0.000000 -0.058095
v -0.096605 0.000000 -0.061949
v 0.108961 0.000000 -0.046095
v 0.090018 0.000000 -0.063503
v 0.106857 0.000000 -0.052528
v 0.102518 0.000000 -0.058095
v 0.096605 0.000000 -0.061949
v 0.071678 0.000000 0.064800
v -0.071678 0.000000 0.064800
v 0.038792 0.000000 0.066353
v -0.038792 0.000000 0.066353
v 0.000000 0.000000 0.066898
v -0.071678 0.000000 -0.064800
v 0.071678 0.000000 -0.064800
v -0.038792 0.000000 -0.066353
v 0.044725 0.343858 -0.076501
v 0.082641 0.343858 -0.074710
v -0.000000 0.343858 -0.077130
v -0.082641 0.343858 -0.074710
v -0.044725 0.343858 -0.076501
v -0.044725 0.343858 0.076501
v -0.082641 0.343858 0.074710
v -0.000000 0.343858 0.077130
v 0.038792 0.000000 -0.066353
v 0.000000 0.000000 -0.066898
v 0.082641 0.343858 0.074710
v 0.044725 0.343858 0.076501
v 0.103786 0.343858 -0.073216
v 0.109471 0.000160 0.000000
v 0.126704 0.344019 0.000000
v 0.126230 0.344019 -0.018411
v 0.109060 0.000161 -0.015945
v -0.071489 0.000098 -0.061602
v -0.082452 0.343957 -0.071513
v -0.103303 0.343968 -0.070040
v -0.089535 0.000109 -0.060327
v 0.124879 0.344020 -0.034008
v 0.107891 0.000162 -0.029451
v 0.100323 0.000162 -0.055706
v 0.116003 0.344020 -0.064591
v 0.110101 0.343996 -0.068437
v 0.095326 0.000137 -0.058962
v 0.089535 0.000109 -0.060327
v 0.103303 0.343968 -0.070040
v 0.082452 0.343957 -0.071513
v 0.071489 0.000098 -0.061602
v 0.100323 0.000162 0.055706
v 0.116003 0.344020 0.064591
v 0.120333 0.344030 0.059036
v 0.103990 0.000172 0.051002
v 0.089535 0.000109 0.060327
v 0.103303 0.343968 0.070040
v 0.110101 0.343996 0.068437
v 0.095326 0.000137 0.058962
v 0.109060 0.000161 0.015945
v 0.126230 0.344019 0.018411
v 0.103990 0.000172 -0.051002
v 0.120333 0.344030 -0.059036
v 0.105826 0.000166 -0.045386
v 0.122491 0.344025 -0.052436
v -0.071489 0.000098 0.061602
v -0.082452 0.343957 0.071513
v -0.044627 0.343955 0.073299
v -0.038694 0.000096 0.063151
v 0.000000 0.000095 -0.063695
v -0.000000 0.343954 -0.073927
v -0.044627 0.343955 -0.073299
v -0.038694 0.000096 -0.063151
v -0.109060 0.000161 0.015945
v -0.126230 0.344019 0.018411
v -0.124879 0.344020 0.034008
v -0.107891 0.000162 0.029451
v -0.100323 0.000162 0.055706
v -0.116003 0.344020 0.064591
v -0.110101 0.343996 0.068437
v -0.095326 0.000137 0.058962
v 0.107891 0.000162 0.029451
v 0.124879 0.344020 0.034008
v 0.071489 0.000098 0.061602
v 0.082452 0.343957 0.071513
v -0.103303 0.343968 0.070040
v -0.089535 0.000109 0.060327
v -0.109060 0.000161 -0.015945
v -0.126230 0.344019 -0.018411
v -0.126704 0.344019 0.000000
v -0.109471 0.000160 0.000000
v -0.103990 0.000172 -0.051002
v -0.120333 0.344030 -0.059036
v -0.122491 0.344025 -0.052436
v -0.105826 0.000166 -0.045386
v 0.000000 0.000095 0.063695
v -0.000000 0.343954 0.073927
v 0.044627 0.343955 0.073299
v 0.038694 0.000096 0.063151
v -0.105826 0.000166 0.045386
v -0.122491 0.344025 0.052436
v -0.120333 0.344030 0.059036
v -0.103990 0.000172 0.051002
v 0.044627 0.343955 -0.073299
v 0.038694 0.000096 -0.063151
v -0.095326 0.000137 -0.058962
v -0.110101 0.343996 -0.068437
v -0.116003 0.344020 -0.064591
v -0.100323 0.000162 -0.055706
v -0.107891 0.000162 -0.029451
v -0.124879 0.344020 -0.034008
v 0.122491 0.344025 0.052436
v 0.105826 0.000166 0.045386
v 0.109471 0.003364 -0.000000
v 0.109060 0.003365 -0.015945
v 0.107891 0.003366 -0.029451
v 0.105826 0.003370 -0.045386
v 0.103990 0.003376 -0.051002
v 0.100323 0.003366 -0.055706
v 0.095326 0.003341 -0.058962
v 0.089535 0.003313 -0.060327
v 0.071489 0.003302 -0.061602
v 0.038694 0.003300 -0.063151
v -0.000000 0.003299 -0.063695
v -0.038694 0.003300 -0.063151
v -0.071489 0.003302 -0.061602
v -0.089535 0.003313 -0.060327
v -0.095326 0.003341 -0.058962
v -0.100323 0.003366 -0.055706
v -0.103990 0.003376 -0.051002
v -0.105826 0.003370 -0.045386
v -0.107891 0.003366 -0.029451
v -0.109060 0.003365 -0.015945
v -0.109471 0.003364 -0.000000
v -0.109060 0.003365 0.015945
v -0.107891 0.003366 0.029451
v -0.105826 0.003370 0.045386
v -0.103990 0.003376 0.051002
v -0.100323 0.003366 0.055706
v -0.095326 0.003341 0.058962
v -0.089535 0.003313 0.060327
v -0.071489 0.003302 0.061602
v -0.038694 0.003300 0.063151
v -0.000000 0.003299 0.063695
v 0.038694 0.003300 0.063151
v 0.071489 0.003302 0.061602
v 0.089535 0.003313 0.060327
v 0.095326 0.003341 0.058962
v 0.100323 0.003366 0.055706
v 0.103990 0.003376 0.051002
v 0.105826 0.003370 0.045386
v 0.107891 0.003366 0.029451
v 0.109060 0.003365 0.015945
v -0.082641 0.349787 -0.074710
v -0.103786 0.349787 -0.073216
v 0.103786 0.349787 -0.073216
v 0.082641 0.349787 -0.074710
v 0.082641 0.349787 0.074710
v 0.103786 0.349787 0.073216
v -0.103786 0.349787 0.073216
v -0.082641 0.349787 0.074710
v 0.044725 0.349787 -0.076501
v 0.000000 0.349787 -0.077130
v -0.044725 0.349787 -0.076501
v -0.044725 0.349787 0.076501
v 0.000000 0.349787 0.077130
v 0.044725 0.349787 0.076501
v -0.128061 0.349787 0.034352
v -0.125626 0.349787 0.053145
v 0.129426 0.349787 0.018591
v 0.129905 0.349787 0.000000
v 0.128061 0.349787 0.034352
v 0.111381 0.349787 -0.071424
v 0.118198 0.349787 -0.066980
v 0.123200 0.349787 -0.060562
v 0.129426 0.349787 -0.018591
v 0.128061 0.349787 -0.034352
v 0.125626 0.349787 -0.053145
v -0.123200 0.349787 -0.060562
v -0.125626 0.349787 -0.053145
v -0.118198 0.349787 -0.066980
v -0.111381 0.349787 -0.071424
v -0.128061 0.349787 -0.034352
v 0.125626 0.349787 0.053145
v 0.123200 0.349787 0.060562
v 0.118198 0.349787 0.066980
v 0.111381 0.349787 0.071424
v -0.129426 0.349787 -0.018591
v -0.129905 0.349787 0.000000
v -0.129426 0.349787 0.018591
v -0.111381 0.349787 0.071424
v -0.118198 0.349787 0.066980
v -0.123200 0.349787 0.060562
v 0.126704 0.349947 0.000000
v 0.126230 0.349947 -0.018411
v -0.082452 0.349885 -0.071513
v -0.103303 0.349896 -0.070040
v 0.124879 0.349948 -0.034008
v 0.116003 0.349948 -0.064591
v 0.110101 0.349924 -0.068437
v 0.103303 0.349896 -0.070040
v 0.082452 0.349885 -0.071513
v 0.116003 0.349948 0.064591
v 0.120333 0.349958 0.059036
v 0.103303 0.349896 0.070040
v 0.110101 0.349924 0.068437
v 0.126230 0.349947 0.018411
v 0.120333 0.349958 -0.059036
v 0.122491 0.349953 -0.052436
v -0.082452 0.349885 0.071513
v -0.044627 0.349883 0.073299
v 0.000000 0.349882 -0.073927
v -0.044627 0.349883 -0.073299
v -0.126230 0.349947 0.018411
v -0.124879 0.349948 0.034008
v -0.116003 0.349948 0.064591
v -0.110101 0.349924 0.068437
v 0.124879 0.349948 0.034008
v 0.082452 0.349885 0.071513
v -0.103303 0.349896 0.070040
v -0.126230 0.349947 -0.018411
v -0.126704 0.349947 0.000000
v -0.120333 0.349958 -0.059036
v -0.122491 0.349953 -0.052436
v 0.000000 0.349882 0.073927
v 0.044627 0.349883 0.073299
v -0.122491 0.349953 0.052436
v -0.120333 0.349958 0.059036
v 0.044627 0.349883 -0.073299
v -0.110101 0.349924 -0.068437
v -0.116003 0.349948 -0.064591
v -0.124879 0.349948 -0.034008
v 0.122491 0.349953 0.052436
v -0.085607 0.343593 -0.079905
v -0.107512 0.343593 -0.078307
v 0.107512 0.343593 -0.078307
v 0.085607 0.343593 -0.079905
v 0.085607 0.343593 0.079905
v 0.107512 0.343593 0.078307
v -0.107512 0.343593 0.078307
v -0.085607 0.343593 0.079905
v 0.046330 0.343593 -0.081820
v 0.000000 0.343593 -0.082493
v -0.046330 0.343593 -0.081820
v -0.046330 0.343593 0.081820
v 0.000000 0.343593 0.082493
v 0.046330 0.343593 0.081820
v -0.132658 0.343593 0.036740
v -0.130135 0.343593 0.056841
v 0.134072 0.343593 0.019884
v 0.134568 0.343593 0.000000
v 0.132658 0.343593 0.036740
v 0.115379 0.343593 -0.076390
v 0.122441 0.343593 -0.071637
v 0.127622 0.343593 -0.064773
v 0.134072 0.343593 -0.019884
v 0.132658 0.343593 -0.036740
v 0.130135 0.343593 -0.056841
v -0.127622 0.343593 -0.064773
v -0.130135 0.343593 -0.056841
v -0.122441 0.343593 -0.071637
v -0.115379 0.343593 -0.076390
v -0.132658 0.343593 -0.036740
v 0.130135 0.343593 0.056841
v 0.127622 0.343593 0.064773
v 0.122441 0.343593 0.071637
v 0.115379 0.343593 0.076390
v -0.134072 0.343593 -0.019884
v -0.134568 0.343593 0.000000
v -0.134072 0.343593 0.019884
v -0.115379 0.343593 0.076390
v -0.122441 0.343593 0.071637
v -0.127622 0.343593 0.064773
v 0.107512 0.350051 -0.078307
v 0.085607 0.350051 -0.079905
v -0.122441 0.350051 -0.071637
v -0.085607 0.350051 -0.079905
v -0.107512 0.350051 -0.078307
v -0.127622 0.350051 -0.064773
v -0.130135 0.350051 -0.056841
v 0.130135 0.350051 -0.056841
v 0.132658 0.350051 -0.036740
v 0.134568 0.350051 0.000000
v 0.134072 0.350051 -0.019884
v 0.127622 0.350051 -0.064773
v 0.122441 0.350051 -0.071637
v 0.115379 0.350051 -0.076390
v -0.130135 0.350051 0.056841
v -0.127622 0.350051 0.064773
v 0.085607 0.350051 0.079905
v 0.107512 0.350051 0.078307
v -0.107512 0.350051 0.078307
v -0.085607 0.350051 0.079905
v 0.046330 0.350051 -0.081820
v 0.000000 0.350051 -0.082493
v -0.046330 0.350051 -0.081820
v -0.046330 0.350051 0.081820
v 0.000000 0.350051 0.082493
v 0.046330 0.350051 0.081820
v -0.132658 0.350051 0.036740
v 0.134072 0.350051 0.019884
v 0.132658 0.350051 0.036740
v -0.115379 0.350051 -0.076390
v -0.132658 0.350051 -0.036740
v 0.130135 0.350051 0.056841
v 0.127622 0.350051 0.064773
v 0.122441 0.350051 0.071637
v 0.115379 0.350051 0.076390
v -0.134072 0.350051 -0.019884
v -0.134568 0.350051 0.000000
v -0.134072 0.350051 0.019884
v -0.115379 0.350051 0.076390
v -0.122441 0.350051 0.071637
vt 0.846990 0.962013
vt 0.867870 0.964979
vt 0.865137 0.969976
vt 0.842804 0.966893
vt 0.838774 0.664500
vt 0.846990 0.667275
vt 0.842804 0.672154
vt 0.834015 0.669277
vt 0.987997 0.940105
vt 0.990003 0.916972
vt 0.995737 0.920303
vt 0.993604 0.944266
vt 0.867870 0.670241
vt 0.865137 0.675237
vt 0.825001 0.937778
vt 0.826874 0.946123
vt 0.821281 0.950422
vt 0.819275 0.941777
vt 0.831710 0.658920
vt 0.826457 0.663493
vt 0.992673 0.735968
vt 0.991351 0.712787
vt 0.997078 0.708788
vt 0.998503 0.732802
vt 0.826350 0.438854
vt 0.823744 0.480348
vt 0.817849 0.478505
vt 0.820615 0.435523
vt 0.831710 0.953659
vt 0.826457 0.958232
vt 0.826874 0.651384
vt 0.821281 0.655684
vt 0.828355 0.710459
vt 0.826350 0.733593
vt 0.820615 0.730262
vt 0.822748 0.706298
vt 0.822322 0.529317
vt 0.816352 0.529232
vt 0.838773 0.959239
vt 0.834015 0.964015
vt 0.825001 0.643039
vt 0.819275 0.647038
vt 0.823680 0.914597
vt 0.817849 0.917763
vt 0.822299 0.578307
vt 0.823680 0.619858
vt 0.817849 0.623024
vt 0.816352 0.579980
vt 0.885391 0.671986
vt 0.883877 0.677053
vt 0.830219 0.650031
vt 0.834404 0.656554
vt 0.872008 0.389754
vt 0.889573 0.388510
vt 0.889721 0.392013
vt 0.872339 0.393244
vt 0.840518 0.661385
vt 0.989479 0.409703
vt 0.991351 0.418048
vt 0.987808 0.418527
vt 0.986133 0.411056
vt 0.847830 0.663853
vt 0.984643 0.402166
vt 0.981948 0.404532
vt 0.977579 0.396586
vt 0.975834 0.399702
vt 0.910275 0.388281
vt 0.930961 0.389101
vt 0.930710 0.392599
vt 0.910223 0.391786
vt 0.948482 0.390846
vt 0.948048 0.394325
vt 0.969363 0.393812
vt 0.968523 0.397234
vt 0.973598 0.666426
vt 0.965303 0.668964
vt 0.964565 0.665520
vt 0.971946 0.663262
vt 0.990003 0.622233
vt 0.987997 0.645366
vt 0.984470 0.644786
vt 0.986447 0.621976
vt 0.980823 0.661050
vt 0.978200 0.658608
vt 0.992673 0.441229
vt 0.989111 0.441384
vt 0.985880 0.653655
vt 0.982575 0.652206
vt 0.828355 0.415720
vt 0.831882 0.416301
vt 0.829906 0.439111
vt 0.827241 0.619702
vt 0.828544 0.642560
vt 0.944345 0.671333
vt 0.944013 0.667842
vt 0.994053 0.482780
vt 0.994031 0.531769
vt 0.990465 0.531718
vt 0.990488 0.482837
vt 0.851049 0.392123
vt 0.851788 0.395567
vt 0.842754 0.394661
vt 0.844406 0.397825
vt 0.992608 0.580739
vt 0.989046 0.580580
vt 0.835529 0.400037
vt 0.838152 0.402479
vt 0.830472 0.407432
vt 0.833777 0.408881
vt 0.825887 0.529368
vt 0.825864 0.578250
vt 0.926779 0.672577
vt 0.906077 0.672806
vt 0.906129 0.669301
vt 0.926631 0.669073
vt 0.827306 0.480506
vt 0.885643 0.668488
vt 0.868304 0.666761
vt 0.872008 0.684493
vt 0.851049 0.686861
vt 0.847008 0.681864
vt 0.869423 0.679421
vt 0.906002 0.677913
vt 0.998503 0.582581
vt 0.995737 0.625564
vt 0.842754 0.689400
vt 0.838139 0.684490
vt 0.946929 0.676405
vt 0.928143 0.677685
vt 1.000000 0.531855
vt 0.889573 0.683249
vt 0.888210 0.678140
vt 0.998503 0.438063
vt 1.000000 0.481106
vt 0.910275 0.683019
vt 0.910350 0.677913
vt 0.822748 0.411560
vt 0.825009 0.402975
vt 0.830413 0.395317
vt 0.835529 0.694776
vt 0.830413 0.690055
vt 0.838139 0.389751
vt 0.830473 0.702171
vt 0.825009 0.697713
vt 0.847008 0.387126
vt 0.965303 0.963703
vt 0.973598 0.961165
vt 0.978214 0.966075
vt 0.969344 0.968700
vt 0.997078 0.414049
vt 0.888209 0.383402
vt 0.910350 0.383174
vt 0.823744 0.775087
vt 0.822322 0.824056
vt 0.816352 0.823971
vt 0.817849 0.773244
vt 0.969363 0.688551
vt 0.948482 0.685585
vt 0.951215 0.680589
vt 0.973549 0.683671
vt 0.869423 0.384682
vt 0.977579 0.691325
vt 0.982338 0.686549
vt 0.995071 0.405403
vt 0.822299 0.873046
vt 0.816352 0.874719
vt 0.984643 0.696905
vt 0.989895 0.692333
vt 0.989895 0.397594
vt 0.989479 0.704441
vt 0.995071 0.700142
vt 0.982338 0.391810
vt 0.932475 0.384034
vt 0.992608 0.875477
vt 0.994031 0.826508
vt 1.000000 0.826593
vt 0.998503 0.877320
vt 0.885391 0.966725
vt 0.906077 0.967545
vt 0.906002 0.972652
vt 0.883877 0.971792
vt 0.951215 0.385850
vt 0.973549 0.388932
vt 0.994053 0.777519
vt 1.000000 0.775845
vt 0.926779 0.967316
vt 0.928143 0.972424
vt 0.978214 0.671336
vt 0.969344 0.673961
vt 0.985939 0.665770
vt 0.944345 0.966072
vt 0.946929 0.971144
vt 0.991343 0.658112
vt 0.985880 0.948394
vt 0.991343 0.952851
vt 0.993604 0.649527
vt 0.930961 0.683840
vt 0.932475 0.678772
vt 0.980823 0.955789
vt 0.985939 0.960509
vt 0.452168 0.376609
vt 0.470047 0.376609
vt 0.470507 0.753217
vt 0.449894 0.753217
vt 0.051844 0.376609
vt 0.031526 0.376609
vt 0.015671 0.000000
vt 0.039097 0.000000
vt 0.485313 0.376609
vt 0.488109 0.753217
vt 0.245894 0.376608
vt 0.239103 0.376608
vt 0.254996 0.000000
vt 0.262826 0.000000
vt 0.231692 0.376608
vt 0.211228 0.376609
vt 0.222857 0.000000
vt 0.246451 0.000000
vt 0.389290 0.376609
vt 0.394872 0.376609
vt 0.383834 0.753217
vt 0.377400 0.753217
vt 0.493927 0.000000
vt 0.501137 0.000000
vt 0.518212 0.376608
vt 0.509898 0.376608
vt 0.507439 0.000000
vt 0.525478 0.376609
vt 0.434399 0.376609
vt 0.429407 0.753217
vt 0.510999 0.376609
vt 0.517725 0.376609
vt 0.525477 0.753217
vt 0.517722 0.753217
vt 0.503610 0.376609
vt 0.509204 0.753217
vt 0.314361 0.000000
vt 0.351008 0.000000
vt 0.345121 0.376609
vt 0.302869 0.376608
vt 0.131418 0.376609
vt 0.088320 0.376609
vt 0.081151 0.000000
vt 0.130841 0.000000
vt 0.616556 0.383174
vt 0.631511 0.383174
vt 0.638790 0.759782
vt 0.621548 0.759782
vt 0.279630 0.000000
vt 0.286467 0.000000
vt 0.270709 0.376609
vt 0.262826 0.376609
vt 0.419444 0.376609
vt 0.412165 0.753217
vt 0.473639 0.000000
vt 0.486508 0.376608
vt 0.293894 0.000000
vt 0.279271 0.376609
vt 0.580908 0.383174
vt 0.598787 0.383174
vt 0.601061 0.759782
vt 0.580448 0.759782
vt 0.452725 0.756723
vt 0.470467 0.757418
vt 0.485482 0.758907
vt 0.503188 0.761414
vt 0.509411 0.763511
vt 0.514589 0.767599
vt 0.518135 0.773122
vt 0.519565 0.779485
vt 0.520702 0.799266
vt 0.521912 0.835206
vt 0.521912 0.877589
vt 0.520701 0.919955
vt 0.518464 0.955847
vt 0.516763 0.975590
vt 0.515152 0.981911
vt 0.511450 0.987333
vt 0.506156 0.991276
vt 0.499876 0.993201
vt 0.482106 0.995217
vt 0.467054 0.996290
vt 0.449299 0.996494
vt 0.431556 0.995799
vt 0.416541 0.994310
vt 0.398836 0.991803
vt 0.392613 0.989706
vt 0.387434 0.985618
vt 0.383888 0.980096
vt 0.382459 0.973732
vt 0.381322 0.953951
vt 0.380111 0.918011
vt 0.380111 0.875628
vt 0.381322 0.833262
vt 0.383559 0.797370
vt 0.385261 0.777627
vt 0.386872 0.771306
vt 0.390574 0.765884
vt 0.395867 0.761941
vt 0.402147 0.760016
vt 0.419918 0.758000
vt 0.434969 0.756927
vt 0.539956 0.383174
vt 0.547345 0.383174
vt 0.541751 0.759782
vt 0.533233 0.759782
vt 0.394146 0.000000
vt 0.437208 0.000000
vt 0.444505 0.376608
vt 0.394856 0.376608
vt 0.649250 0.383174
vt 0.656083 0.383174
vt 0.667121 0.759782
vt 0.659243 0.759782
vt 0.661664 0.383174
vt 0.673555 0.759782
vt 0.174577 0.376609
vt 0.180601 0.000000
vt 0.024290 0.376609
vt 0.017934 0.376609
vt 0.000000 0.000000
vt 0.007329 0.000000
vt 0.533230 0.383174
vt 0.525478 0.759782
vt 0.565642 0.383174
vt 0.562846 0.759782
vt 0.401705 0.376609
vt 0.391712 0.753217
vt 0.745815 0.383174
vt 0.743542 0.759782
vt 0.723252 0.759783
vt 0.728244 0.383175
vt 0.575142 0.000003
vt 0.562274 0.376612
vt 0.539210 0.376624
vt 0.555181 0.000015
vt 0.706191 0.759784
vt 0.713470 0.383175
vt 0.766447 0.000073
vt 0.783251 0.376681
vt 0.776427 0.376654
vt 0.760669 0.000046
vt 0.754139 0.000015
vt 0.768762 0.376624
vt 0.745493 0.376612
vt 0.734001 0.000003
vt 0.808599 0.383175
vt 0.816352 0.759784
vt 0.809640 0.759795
vt 0.802916 0.383187
vt 0.029668 0.376624
vt 0.013813 0.753232
vt 0.006344 0.753263
vt 0.023306 0.376655
vt 0.000000 0.753290
vt 0.017934 0.376681
vt 0.763495 0.383174
vt 0.763956 0.759783
vt 0.690162 0.383187
vt 0.679125 0.759795
vt 0.673555 0.759784
vt 0.685446 0.383176
vt 0.696127 0.383181
vt 0.686135 0.759789
vt 0.208623 0.376612
vt 0.220253 0.753220
vt 0.178097 0.753218
vt 0.172073 0.376609
vt 0.654426 0.000000
vt 0.653716 0.376609
vt 0.604176 0.376609
vt 0.611473 0.000001
vt 0.836107 0.000001
vt 0.835647 0.376609
vt 0.818229 0.376610
vt 0.821024 0.000001
vt 0.241013 0.376681
vt 0.257945 0.753290
vt 0.251167 0.753263
vt 0.235273 0.376655
vt 0.778578 0.383175
vt 0.781374 0.759784
vt 0.049659 0.376612
vt 0.036911 0.753220
vt 0.243517 0.753232
vt 0.228758 0.376624
vt 0.871359 0.000001
vt 0.876351 0.376609
vt 0.856062 0.376608
vt 0.853787 0.000000
vt 0.909441 0.000013
vt 0.920478 0.376621
vt 0.913468 0.376615
vt 0.903475 0.000007
vt 0.129023 0.376609
vt 0.128446 0.753217
vt 0.078865 0.753218
vt 0.086034 0.376610
vt 0.803137 0.000007
vt 0.797543 0.376615
vt 0.789963 0.376621
vt 0.796687 0.000013
vt 0.783251 0.376610
vt 0.791003 0.000002
vt 0.703343 0.376609
vt 0.697455 0.000001
vt 0.548842 0.000046
vt 0.531767 0.376654
vt 0.525478 0.376681
vt 0.543516 0.000073
vt 0.914157 0.000002
vt 0.926048 0.376610
vt 0.886133 0.000001
vt 0.893412 0.376610
vt 0.802060 0.759789
vt 0.796466 0.383181
vt 0.776427 0.383147
vt 0.768762 0.383116
vt 0.467204 0.999793
vt 0.449249 1.000000
vt 0.525478 0.877638
vt 0.524264 0.920112
vt 0.524263 0.799109
vt 0.525478 0.835148
vt 0.036911 0.759713
vt 0.013813 0.759725
vt 0.377760 0.833105
vt 0.380003 0.797114
vt 0.562274 0.383104
vt 0.539210 0.383116
vt 0.500617 0.996645
vt 0.482439 0.998707
vt 0.507810 0.994440
vt 0.434820 0.753424
vt 0.452775 0.753217
vt 0.376546 0.875579
vt 0.377760 0.954108
vt 0.376546 0.918069
vt 0.514075 0.989774
vt 0.789963 0.383114
vt 0.783251 0.383103
vt 0.518457 0.983358
vt 0.913468 0.383108
vt 0.893412 0.383103
vt 0.520290 0.976168
vt 0.763956 0.766276
vt 0.743542 0.766275
vt 0.522020 0.956103
vt 0.521480 0.771766
vt 0.523108 0.779004
vt 0.781374 0.766277
vt 0.517283 0.765232
vt 0.818229 0.383103
vt 0.797543 0.383108
vt 0.511154 0.760395
vt 0.381733 0.777049
vt 0.504027 0.757992
vt 0.723252 0.766276
vt 0.378916 0.974213
vt 0.485915 0.755427
vt 0.006344 0.759756
vt 0.000000 0.759782
vt 0.416109 0.997790
vt 0.397997 0.995225
vt 0.078865 0.759711
vt 0.431306 0.999297
vt 0.380543 0.981451
vt 0.257945 0.759782
vt 0.251167 0.759756
vt 0.876351 0.383102
vt 0.384741 0.987985
vt 0.390870 0.992822
vt 0.128446 0.759710
vt 0.470717 0.753920
vt 0.401407 0.756572
vt 0.419585 0.754510
vt 0.856062 0.383101
vt 0.835647 0.383102
vt 0.394214 0.758777
vt 0.816352 0.766277
vt 0.809640 0.766288
vt 0.387949 0.763443
vt 0.383566 0.769859
vt 0.920478 0.383114
vt 0.703343 0.383102
vt 0.653716 0.383101
vt 0.072613 0.759782
vt 0.090356 0.760478
vt 0.105371 0.761967
vt 0.123077 0.764473
vt 0.129299 0.766571
vt 0.134478 0.770659
vt 0.138024 0.776181
vt 0.139453 0.782544
vt 0.140590 0.802326
vt 0.141801 0.838266
vt 0.141801 0.880649
vt 0.140590 0.923015
vt 0.138353 0.958907
vt 0.136651 0.978650
vt 0.135041 0.984971
vt 0.131338 0.990393
vt 0.126045 0.994336
vt 0.119765 0.996261
vt 0.101995 0.998277
vt 0.086943 0.999349
vt 0.069187 0.999554
vt 0.051445 0.998859
vt 0.036430 0.997370
vt 0.018724 0.994863
vt 0.012502 0.992766
vt 0.007323 0.988678
vt 0.003777 0.983155
vt 0.002347 0.976792
vt 0.001211 0.957010
vt 0.000000 0.921071
vt 0.000000 0.878688
vt 0.001211 0.836321
vt 0.003448 0.800430
vt 0.005149 0.780687
vt 0.006760 0.774366
vt 0.010462 0.768944
vt 0.015756 0.765001
vt 0.022036 0.763076
vt 0.039806 0.761060
vt 0.054858 0.759987
vt 0.337849 0.387117
vt 0.337855 0.381248
vt 0.341421 0.381248
vt 0.341415 0.387117
vt 0.341423 0.470201
vt 0.341422 0.455665
vt 0.344989 0.455665
vt 0.344990 0.470201
vt 0.337849 0.485834
vt 0.337843 0.468236
vt 0.341410 0.468236
vt 0.341415 0.485834
vt 0.345017 0.583828
vt 0.345004 0.564015
vt 0.348571 0.564015
vt 0.348583 0.583828
vt 0.341421 0.438378
vt 0.341422 0.420984
vt 0.344989 0.420984
vt 0.344988 0.438378
vt 0.259186 0.443608
vt 0.259188 0.407821
vt 0.262755 0.407821
vt 0.262753 0.443608
vt 0.337843 0.376609
vt 0.341410 0.376609
vt 0.259200 0.584025
vt 0.259188 0.564216
vt 0.262755 0.564216
vt 0.262767 0.584025
vt 0.259232 0.590436
vt 0.262799 0.590436
vt 0.259185 0.485902
vt 0.262752 0.485902
vt 0.259186 0.528257
vt 0.262753 0.528257
vt 0.345004 0.407724
vt 0.345016 0.388086
vt 0.348583 0.388086
vt 0.348571 0.407724
vt 0.345002 0.528060
vt 0.345001 0.485727
vt 0.348568 0.485727
vt 0.348569 0.528060
vt 0.337855 0.492180
vt 0.341421 0.492180
vt 0.259200 0.388153
vt 0.262767 0.388153
vt 0.337842 0.436002
vt 0.337842 0.418715
vt 0.341409 0.418715
vt 0.341409 0.436002
vt 0.341434 0.382200
vt 0.341423 0.376609
vt 0.344990 0.376609
vt 0.345001 0.382200
vt 0.345048 0.590252
vt 0.348615 0.590252
vt 0.341423 0.497772
vt 0.341434 0.493132
vt 0.345001 0.493132
vt 0.344990 0.497772
vt 0.337843 0.404179
vt 0.341410 0.404179
vt 0.341428 0.487263
vt 0.344995 0.487263
vt 0.341423 0.406144
vt 0.344990 0.406144
vt 0.337842 0.453396
vt 0.341409 0.453396
vt 0.341428 0.388546
vt 0.344995 0.388546
vt 0.259232 0.381894
vt 0.259259 0.376609
vt 0.262826 0.376609
vt 0.262799 0.381894
vt 0.345002 0.443468
vt 0.348569 0.443468
vt 0.345048 0.381848
vt 0.348615 0.381848
vt 0.337843 0.497772
vt 0.341410 0.497772
vt 0.345075 0.595937
vt 0.348642 0.595937
vt 0.259259 0.596082
vt 0.262826 0.596082
vt 0.345075 0.376609
vt 0.348642 0.376609
vt 0.745493 0.383104
vt 0.679125 0.766288
vt 0.673555 0.766277
vt 0.243517 0.759725
vt 0.706191 0.766277
vt 0.178097 0.759711
vt 0.686135 0.766282
vt 0.802060 0.766282
vt 0.531767 0.383147
vt 0.525478 0.383174
vt 0.783251 0.383174
vt 0.220253 0.759713
vt 0.926048 0.383103
vt 0.604176 0.383102
vt 0.377400 0.417357
vt 0.377400 0.460426
vt 0.370210 0.460426
vt 0.370210 0.417357
vt 0.363021 0.391702
vt 0.363021 0.413234
vt 0.355831 0.413234
vt 0.355832 0.391702
vt 0.377400 0.511141
vt 0.370210 0.511141
vt 0.355831 0.393699
vt 0.355831 0.415887
vt 0.348642 0.415887
vt 0.348642 0.393699
vt 0.370210 0.393383
vt 0.370210 0.417437
vt 0.363021 0.417437
vt 0.363021 0.393383
vt 0.377400 0.628509
vt 0.377400 0.637008
vt 0.370210 0.637008
vt 0.370210 0.628509
vt 0.370210 0.604592
vt 0.370210 0.628428
vt 0.363021 0.628428
vt 0.363021 0.604592
vt 0.377400 0.644469
vt 0.370210 0.644469
vt 0.377400 0.393308
vt 0.370210 0.393308
vt 0.355831 0.376609
vt 0.355831 0.384747
vt 0.348642 0.384747
vt 0.348642 0.376609
vt 0.377400 0.604637
vt 0.370210 0.604637
vt 0.363021 0.493145
vt 0.363021 0.515332
vt 0.355832 0.515332
vt 0.355831 0.493145
vt 0.363021 0.524284
vt 0.355832 0.524284
vt 0.363021 0.474629
vt 0.355831 0.474629
vt 0.363021 0.452941
vt 0.355832 0.452941
vt 0.363021 0.532423
vt 0.355832 0.532423
vt 0.377400 0.376609
vt 0.377400 0.384597
vt 0.370210 0.384597
vt 0.370210 0.376609
vt 0.355831 0.517330
vt 0.355831 0.525630
vt 0.348642 0.525630
vt 0.348642 0.517330
vt 0.363021 0.383401
vt 0.355832 0.383401
vt 0.377400 0.561781
vt 0.370210 0.561781
vt 0.363021 0.376609
vt 0.355832 0.376609
vt 0.370210 0.636896
vt 0.370210 0.644291
vt 0.363021 0.644291
vt 0.363021 0.636896
vt 0.370210 0.460501
vt 0.370210 0.511191
vt 0.363021 0.511191
vt 0.363021 0.460501
vt 0.355831 0.434402
vt 0.355831 0.456090
vt 0.348642 0.456090
vt 0.348642 0.434402
vt 0.370210 0.561789
vt 0.363021 0.561789
vt 0.355831 0.477650
vt 0.348642 0.477650
vt 0.355831 0.495798
vt 0.348642 0.495798
vt 0.370210 0.384653
vt 0.363021 0.384653
vt 0.363021 0.431382
vt 0.355831 0.431382
vt 0.370210 0.376609
vt 0.363021 0.376609
vt 0.355831 0.532423
vt 0.348642 0.532423
vn 0.0536 -0.9985 0.0068
vn 0.0461 0.9988 -0.0148
vn 0.0035 -0.9988 -0.0492
vn 0.0535 0.9985 -0.0068
vn 0.0107 -0.9990 0.0445
vn 0.0342 0.9991 -0.0262
vn -0.0035 -0.9988 -0.0492
vn -0.0024 0.9988 -0.0493
vn 0.0233 -0.9991 0.0351
vn 0.0233 0.9991 -0.0351
vn -0.0035 -0.9988 0.0492
vn -0.0007 0.9988 -0.0494
vn 0.0342 -0.9991 0.0263
vn 0.0107 0.9990 -0.0445
vn 0.0035 -0.9988 0.0492
vn 0.0024 0.9988 -0.0493
vn 0.0461 -0.9988 0.0148
vn 0.0554 0.9985 -0.0047
vn 0.0007 0.9988 -0.0494
vn -0.0241 0.9989 0.0400
vn 0.0502 0.9987 0.0043
vn -0.0407 0.9986 0.0325
vn 0.0070 0.9993 -0.0379
vn -0.0503 0.9986 0.0161
vn 0.0241 0.9989 -0.0400
vn 0.0407 0.9986 -0.0325
vn 0.0501 0.9987 -0.0013
vn 0.0502 0.9987 -0.0043
vn 0.0503 0.9986 -0.0161
vn 0.0508 0.9987 -0.0065
vn -0.0503 0.9986 -0.0161
vn -0.0020 0.9995 -0.0323
vn -0.0407 0.9986 -0.0325
vn 0.0020 0.9995 -0.0323
vn -0.0241 0.9989 -0.0400
vn 0.0020 0.9995 0.0323
vn -0.0070 0.9993 -0.0379
vn -0.0020 0.9995 0.0323
vn -0.0508 0.9987 -0.0065
vn 0.0004 0.9996 -0.0299
vn 0.0508 0.9987 0.0065
vn 0.0014 0.9995 -0.0303
vn 0.0503 0.9986 0.0161
vn -0.0004 0.9996 -0.0299
vn 0.0407 0.9986 0.0325
vn 0.0241 0.9989 0.0400
vn -0.0014 0.9995 -0.0303
vn 0.0070 0.9993 0.0379
vn -0.0004 0.9996 0.0299
vn -0.0501 0.9987 -0.0013
vn -0.0014 0.9995 0.0303
vn -0.0502 0.9987 -0.0043
vn 0.0004 0.9996 0.0299
vn -0.0501 0.9987 0.0013
vn 0.0014 0.9995 0.0303
vn -0.0502 0.9987 0.0043
vn -0.0508 0.9987 0.0065
vn -0.0070 0.9993 0.0379
vn 0.0501 0.9987 0.0013
vn -0.0536 -0.9985 0.0068
vn 0.0566 0.9984 -0.0014
vn 0.0024 0.9988 0.0493
vn -0.0461 -0.9988 0.0148
vn 0.0554 0.9985 0.0047
vn 0.0007 0.9988 0.0494
vn -0.0554 -0.9985 0.0047
vn 0.0566 0.9984 0.0014
vn -0.0024 0.9988 0.0493
vn -0.0566 -0.9984 0.0014
vn -0.0107 0.9990 -0.0444
vn -0.0007 0.9988 0.0494
vn -0.0233 0.9991 -0.0351
vn 0.0035 0.9988 -0.0492
vn -0.0342 -0.9991 0.0262
vn -0.0342 0.9991 -0.0262
vn -0.0035 0.9988 -0.0492
vn -0.0233 -0.9991 0.0351
vn -0.0461 0.9988 -0.0148
vn 0.0461 -0.9988 -0.0148
vn -0.0035 0.9988 0.0492
vn -0.0566 0.9984 -0.0014
vn -0.0007 -0.9988 0.0494
vn -0.0536 -0.9985 -0.0068
vn -0.0554 0.9985 -0.0047
vn -0.0024 -0.9988 0.0493
vn -0.0461 -0.9988 -0.0148
vn -0.0107 0.9990 0.0445
vn 0.0007 -0.9988 0.0494
vn -0.0342 -0.9991 -0.0263
vn -0.0233 0.9991 0.0351
vn -0.0233 -0.9991 -0.0351
vn -0.0342 0.9991 0.0262
vn 0.0024 -0.9988 0.0493
vn -0.0107 -0.9990 -0.0445
vn -0.0566 0.9984 0.0014
vn 0.0007 -0.9988 -0.0494
vn 0.0566 -0.9984 0.0014
vn -0.0554 0.9985 0.0047
vn -0.0461 0.9988 0.0148
vn 0.0024 -0.9988 -0.0493
vn 0.0554 -0.9985 0.0047
vn -0.0535 0.9985 0.0068
vn -0.0007 -0.9988 -0.0494
vn 0.0566 -0.9984 -0.0014
vn 0.0461 0.9988 0.0148
vn -0.0024 -0.9988 -0.0493
vn 0.0342 0.9991 0.0262
vn 0.0554 -0.9985 -0.0047
vn 0.0233 0.9991 0.0351
vn 0.0536 -0.9985 -0.0068
vn 0.0107 -0.9990 -0.0445
vn 0.0107 0.9990 0.0444
vn -0.0566 -0.9984 -0.0014
vn 0.0233 -0.9991 -0.0351
vn 0.0535 0.9985 0.0068
vn -0.0554 -0.9985 -0.0047
vn 0.0035 0.9988 0.0492
vn 0.0342 -0.9991 -0.0262
vn -0.0535 0.9985 -0.0068
vn -0.0107 -0.9990 0.0445
vn 0.6771 -0.7359 0.0000
vn 0.6770 -0.7350 -0.0379
vn 0.6597 -0.7505 -0.0373
vn 0.6618 -0.7496 0.0000
vn -0.0404 -0.7260 -0.6864
vn -0.1049 -0.7135 -0.6928
vn -0.1010 -0.7540 -0.6490
vn -0.0400 -0.7374 -0.6742
vn 0.6717 -0.7373 -0.0725
vn 0.6596 -0.7482 -0.0716
vn 0.4789 -0.7057 -0.5221
vn 0.2801 -0.6993 -0.6576
vn 0.2505 -0.7772 -0.5772
vn 0.4263 -0.7772 -0.4627
vn 0.1049 -0.7135 -0.6928
vn 0.0404 -0.7260 -0.6864
vn 0.0400 -0.7374 -0.6742
vn 0.1010 -0.7540 -0.6490
vn 0.4789 -0.7057 0.5221
vn 0.6250 -0.7062 0.3327
vn 0.5505 -0.7812 0.2944
vn 0.4263 -0.7772 0.4627
vn 0.1049 -0.7135 0.6928
vn 0.2801 -0.6993 0.6576
vn 0.2505 -0.7772 0.5772
vn 0.1010 -0.7540 0.6490
vn 0.6770 -0.7350 0.0379
vn 0.6597 -0.7505 0.0373
vn 0.6250 -0.7062 -0.3327
vn 0.5505 -0.7812 -0.2945
vn 0.6746 -0.7223 -0.1523
vn 0.6287 -0.7642 -0.1439
vn -0.0404 -0.7260 0.6864
vn -0.0210 -0.7243 0.6891
vn -0.0208 -0.7384 0.6740
vn -0.0400 -0.7374 0.6742
vn 0.0000 -0.7247 -0.6890
vn -0.0210 -0.7243 -0.6891
vn -0.0208 -0.7384 -0.6740
vn 0.0000 -0.7377 -0.6751
vn -0.6770 -0.7350 0.0379
vn -0.6717 -0.7373 0.0725
vn -0.6596 -0.7482 0.0716
vn -0.6597 -0.7505 0.0373
vn -0.4789 -0.7057 0.5221
vn -0.2801 -0.6993 0.6576
vn -0.2505 -0.7772 0.5772
vn -0.4263 -0.7772 0.4627
vn 0.6717 -0.7373 0.0725
vn 0.6596 -0.7482 0.0716
vn 0.0404 -0.7260 0.6864
vn 0.0400 -0.7374 0.6742
vn -0.1049 -0.7135 0.6928
vn -0.1010 -0.7540 0.6490
vn -0.6770 -0.7350 -0.0379
vn -0.6771 -0.7359 0.0000
vn -0.6618 -0.7496 0.0000
vn -0.6597 -0.7505 -0.0373
vn -0.0259 -0.9996 0.0000
vn -0.0261 -0.9996 -0.0014
vn -0.0259 -0.9996 -0.0027
vn -0.0284 -0.9996 -0.0060
vn -0.0279 -0.9995 -0.0150
vn -0.0191 -0.9995 -0.0226
vn -0.0080 -0.9997 -0.0245
vn -0.0015 -0.9998 -0.0195
vn -0.0007 -0.9998 -0.0159
vn -0.0004 -0.9999 -0.0154
vn 0.0000 -0.9999 -0.0152
vn 0.0004 -0.9999 -0.0154
vn 0.0007 -0.9998 -0.0159
vn 0.0015 -0.9998 -0.0195
vn 0.0080 -0.9997 -0.0245
vn 0.0191 -0.9995 -0.0226
vn 0.0279 -0.9995 -0.0150
vn 0.0284 -0.9996 -0.0060
vn 0.0259 -0.9996 -0.0027
vn 0.0261 -0.9996 -0.0014
vn 0.0259 -0.9996 0.0000
vn 0.0261 -0.9996 0.0014
vn 0.0259 -0.9996 0.0027
vn 0.0284 -0.9996 0.0060
vn 0.0279 -0.9995 0.0150
vn 0.0191 -0.9995 0.0226
vn 0.0080 -0.9997 0.0245
vn 0.0015 -0.9998 0.0195
vn 0.0007 -0.9998 0.0159
vn 0.0004 -0.9999 0.0154
vn 0.0000 -0.9999 0.0152
vn -0.0004 -0.9999 0.0154
vn -0.0007 -0.9998 0.0159
vn -0.0015 -0.9998 0.0195
vn -0.0080 -0.9997 0.0245
vn -0.0191 -0.9995 0.0226
vn -0.0279 -0.9995 0.0150
vn -0.0284 -0.9996 0.0060
vn -0.0259 -0.9996 0.0027
vn -0.0261 -0.9996 0.0014
vn -0.6250 -0.7062 -0.3327
vn -0.6746 -0.7223 -0.1523
vn -0.6287 -0.7642 -0.1439
vn -0.5505 -0.7812 -0.2944
vn 0.0000 -0.7247 0.6890
vn 0.0210 -0.7243 0.6891
vn 0.0208 -0.7384 0.6740
vn 0.0000 -0.7377 0.6751
vn -0.6746 -0.7223 0.1523
vn -0.6250 -0.7062 0.3327
vn -0.5505 -0.7812 0.2945
vn -0.6287 -0.7642 0.1439
vn 0.0210 -0.7243 -0.6891
vn 0.0208 -0.7384 -0.6740
vn -0.2801 -0.6993 -0.6576
vn -0.4789 -0.7057 -0.5221
vn -0.4263 -0.7772 -0.4627
vn -0.2505 -0.7772 -0.5772
vn -0.6717 -0.7373 -0.0725
vn -0.6596 -0.7482 -0.0716
vn 0.6746 -0.7223 0.1523
vn 0.6287 -0.7642 0.1439
vn -0.9997 0.0250 0.0000
vn -0.9981 0.0251 0.0561
vn 0.0589 0.0153 0.9981
vn 0.1514 0.0170 0.9883
vn -0.9939 0.0252 0.1074
vn -0.6770 0.0248 0.7355
vn -0.3950 0.0211 0.9184
vn -0.1514 0.0170 0.9883
vn -0.0589 0.0153 0.9981
vn -0.6770 0.0248 -0.7355
vn -0.8825 0.0263 -0.4695
vn -0.1514 0.0170 -0.9883
vn -0.3950 0.0211 -0.9184
vn -0.9981 0.0251 -0.0561
vn -0.8825 0.0263 0.4695
vn -0.9749 0.0258 0.2208
vn 0.0589 0.0153 -0.9981
vn 0.0307 0.0150 -0.9994
vn 0.0000 0.0149 0.9999
vn 0.0307 0.0150 0.9994
vn 0.9981 0.0251 -0.0561
vn 0.9939 0.0252 -0.1074
vn 0.6770 0.0248 -0.7355
vn 0.3950 0.0211 -0.9184
vn -0.9939 0.0252 -0.1074
vn -0.0589 0.0153 -0.9981
vn 0.1514 0.0170 -0.9883
vn 0.9981 0.0251 0.0561
vn 0.9997 0.0250 0.0000
vn 0.8825 0.0263 0.4695
vn 0.9749 0.0258 0.2208
vn 0.0000 0.0149 -0.9999
vn -0.0307 0.0150 -0.9994
vn 0.9749 0.0258 -0.2208
vn 0.8825 0.0263 -0.4695
vn -0.0307 0.0150 0.9994
vn 0.3950 0.0211 0.9184
vn 0.6770 0.0248 0.7355
vn 0.9939 0.0252 0.1074
vn -0.9749 0.0258 -0.2208
vn -0.2552 0.7634 0.5934
vn -0.1022 0.7380 0.6670
vn -0.0409 0.7207 -0.6920
vn -0.1022 0.7380 -0.6670
vn 0.0409 0.7207 0.6920
vn 0.1022 0.7380 0.6670
vn 0.5664 0.7670 -0.3013
vn 0.4369 0.7641 -0.4745
vn 0.6481 0.7472 0.1467
vn 0.6797 0.7297 0.0735
vn -0.6806 0.7317 -0.0382
vn -0.6828 0.7306 0.0000
vn -0.6797 0.7297 -0.0735
vn 0.6797 0.7297 -0.0735
vn 0.6481 0.7472 -0.1467
vn -0.6806 0.7317 0.0382
vn -0.2552 0.7634 -0.5934
vn -0.4369 0.7641 -0.4745
vn -0.0212 0.7215 -0.6921
vn 0.2552 0.7634 -0.5934
vn 0.6806 0.7317 0.0382
vn 0.0000 0.7208 -0.6931
vn 0.6828 0.7306 0.0000
vn 0.6806 0.7317 -0.0382
vn -0.5664 0.7670 -0.3013
vn 0.5664 0.7670 0.3013
vn -0.0212 0.7215 0.6921
vn 0.0000 0.7208 0.6931
vn 0.7128 0.7013 0.0000
vn 0.7127 0.7003 -0.0400
vn 0.7077 0.7023 -0.0764
vn 0.7091 0.6866 -0.1604
vn 0.6548 0.6706 -0.3485
vn 0.5011 0.6721 -0.5451
vn 0.2923 0.6704 -0.6819
vn 0.1092 0.6890 -0.7165
vn 0.0417 0.7044 -0.7085
vn 0.0218 0.7034 -0.7104
vn 0.0000 0.7039 -0.7102
vn -0.0218 0.7034 -0.7104
vn -0.0417 0.7044 -0.7085
vn -0.1092 0.6890 -0.7165
vn -0.2923 0.6704 -0.6819
vn -0.5011 0.6721 -0.5451
vn -0.6548 0.6706 -0.3485
vn -0.7091 0.6866 -0.1604
vn -0.7077 0.7023 -0.0764
vn -0.7127 0.7003 -0.0400
vn -0.7128 0.7013 0.0000
vn -0.7127 0.7003 0.0400
vn -0.7077 0.7023 0.0764
vn -0.7091 0.6866 0.1604
vn -0.6548 0.6706 0.3485
vn -0.5011 0.6721 0.5451
vn -0.2923 0.6704 0.6819
vn -0.1092 0.6890 0.7165
vn -0.0417 0.7044 0.7085
vn -0.0218 0.7034 0.7104
vn 0.0000 0.7039 0.7102
vn 0.0218 0.7034 0.7104
vn 0.0417 0.7044 0.7085
vn 0.1092 0.6890 0.7165
vn 0.2923 0.6704 0.6819
vn 0.5011 0.6721 0.5451
vn 0.6548 0.6706 0.3485
vn 0.7091 0.6866 0.1604
vn 0.7077 0.7023 0.0764
vn 0.7127 0.7003 0.0400
vn -0.0409 0.7207 0.6920
vn -0.5664 0.7670 0.3013
vn -0.4369 0.7641 0.4745
vn 0.1022 0.7380 -0.6670
vn -0.6797 0.7297 0.0735
vn 0.0212 0.7215 -0.6921
vn -0.6481 0.7472 0.1467
vn -0.6481 0.7472 -0.1467
vn 0.2552 0.7634 0.5934
vn 0.4369 0.7641 0.4745
vn 0.0409 0.7207 -0.6920
vn 0.0212 0.7215 0.6921
vn 0.0419 -0.7215 -0.6911
vn 0.0218 -0.7204 -0.6932
vn 0.0218 0.7204 -0.6932
vn 0.0419 0.7215 -0.6911
vn 0.6937 -0.7042 0.1511
vn 0.6887 -0.7214 0.0718
vn 0.6887 0.7214 0.0718
vn 0.6937 0.7042 0.1511
vn 0.0000 -0.7210 -0.6929
vn 0.0000 0.7210 -0.6929
vn -0.6937 -0.7042 -0.1511
vn -0.6887 -0.7214 -0.0718
vn -0.6887 0.7214 -0.0718
vn -0.6937 0.7042 -0.1511
vn -0.1094 -0.7048 0.7009
vn -0.0419 -0.7215 0.6911
vn -0.0419 0.7215 0.6911
vn -0.1094 0.7048 0.7009
vn -0.1094 -0.7048 -0.7009
vn -0.2941 -0.6838 -0.6678
vn -0.2941 0.6838 -0.6678
vn -0.1094 0.7048 -0.7009
vn 0.0419 -0.7215 0.6911
vn 0.1094 -0.7048 0.7009
vn 0.1094 0.7048 0.7009
vn 0.0419 0.7215 0.6911
vn -0.5007 -0.6857 -0.5283
vn -0.5007 0.6857 -0.5283
vn 0.1094 -0.7048 -0.7009
vn 0.1094 0.7048 -0.7009
vn -0.6472 -0.6857 -0.3331
vn -0.6472 0.6857 -0.3331
vn -0.0419 -0.7215 -0.6911
vn -0.0419 0.7215 -0.6911
vn 0.6887 -0.7214 -0.0718
vn 0.6937 -0.7042 -0.1511
vn 0.6937 0.7042 -0.1511
vn 0.6887 0.7214 -0.0718
vn 0.6472 -0.6857 -0.3331
vn 0.6472 0.6857 -0.3331
vn 0.6930 -0.7199 -0.0375
vn 0.6930 0.7199 -0.0375
vn 0.6928 -0.7211 0.0000
vn 0.6928 0.7211 0.0000
vn 0.5007 -0.6857 -0.5283
vn 0.5007 0.6857 -0.5283
vn 0.2941 -0.6838 -0.6678
vn 0.2941 0.6838 -0.6678
vn -0.6937 -0.7042 0.1511
vn -0.6472 -0.6857 0.3331
vn -0.6472 0.6857 0.3331
vn -0.6937 0.7042 0.1511
vn 0.6472 -0.6857 0.3331
vn 0.6472 0.6857 0.3331
vn -0.0218 -0.7204 -0.6932
vn -0.0218 0.7204 -0.6932
vn 0.5007 -0.6857 0.5283
vn 0.5007 0.6857 0.5283
vn 0.2941 -0.6838 0.6678
vn 0.2941 0.6838 0.6678
vn -0.0218 -0.7204 0.6932
vn 0.0000 -0.7210 0.6929
vn 0.0000 0.7210 0.6929
vn -0.0218 0.7204 0.6932
vn -0.6930 -0.7199 -0.0375
vn -0.6928 -0.7211 0.0000
vn -0.6928 0.7211 0.0000
vn -0.6930 0.7199 -0.0375
vn 0.0218 -0.7204 0.6932
vn 0.0218 0.7204 0.6932
vn -0.6930 -0.7199 0.0375
vn -0.6930 0.7199 0.0375
vn -0.6887 -0.7214 0.0718
vn -0.6887 0.7214 0.0718
vn -0.2941 -0.6838 0.6678
vn -0.2941 0.6838 0.6678
vn 0.6930 -0.7199 0.0375
vn 0.6930 0.7199 0.0375
vn -0.5007 -0.6857 0.5283
vn -0.5007 0.6857 0.5283
usemtl Material.001
s off
f 12/1/1 27/2/1 310/3/1 307/4/1
f 240/5/2 216/6/2 335/7/2 336/8/2
f 20/9/3 74/10/3 288/11/3 287/12/3
f 216/6/4 215/13/4 347/14/4 335/7/4
f 11/15/5 10/16/5 309/17/5 282/18/5
f 239/19/6 240/5/6 336/8/6 360/20/6
f 78/21/7 19/22/7 286/23/7 285/24/7
f 205/25/8 214/26/8 346/27/8 337/28/8
f 10/16/9 9/29/9 308/30/9 309/17/9
f 238/31/10 239/19/10 360/20/10 359/32/10
f 80/33/11 69/34/11 284/35/11 283/36/11
f 214/26/12 213/37/12 345/38/12 346/27/12
f 9/29/13 8/39/13 306/40/13 308/30/13
f 207/41/14 238/31/14 359/32/14 339/42/14
f 71/43/15 11/15/15 282/18/15 281/44/15
f 212/45/16 208/46/16 340/47/16 344/48/16
f 8/39/17 12/1/17 307/4/17 306/40/17
f 215/13/18 237/49/18 358/50/18 347/14/18
f 213/37/19 212/45/19 344/48/19 345/38/19
f 239/19/20 238/31/20 264/51/20 263/52/20
f 219/53/21 217/54/21 254/55/21 265/56/21
f 240/5/22 239/19/22 263/52/22 275/57/22
f 220/58/23 203/59/23 248/60/23 247/61/23
f 216/6/24 240/5/24 275/57/24 274/62/24
f 221/63/25 220/58/25 247/61/25 246/64/25
f 222/65/26 221/63/26 246/64/26 255/66/26
f 218/67/27 223/68/27 242/69/27 241/70/27
f 223/68/28 224/71/28 245/72/28 242/69/28
f 225/73/29 222/65/29 255/66/29 256/74/29
f 224/71/30 225/73/30 256/74/30 245/72/30
f 226/75/31 227/76/31 271/77/31 270/78/31
f 201/79/32 202/80/32 244/81/32 243/82/32
f 228/83/33 226/75/33 270/78/33 278/84/33
f 203/59/34 204/85/34 249/86/34 248/60/34
f 229/87/35 228/83/35 278/84/35 277/88/35
f 205/25/36 206/89/36 252/90/36 266/91/36
f 202/80/37 229/87/37 277/88/37 244/81/37
f 207/41/38 208/46/38 257/92/38 267/93/38
f 227/76/39 230/94/39 279/95/39 271/77/39
f 209/96/40 210/97/40 259/98/40 276/99/40
f 231/100/41 219/53/41 265/56/41 280/101/41
f 204/85/42 209/96/42 276/99/42 249/86/42
f 232/102/43 231/100/43 280/101/43 251/103/43
f 210/97/44 211/104/44 260/105/44 259/98/44
f 233/106/45 232/102/45 251/103/45 250/107/45
f 234/108/46 233/106/46 250/107/46 253/109/46
f 211/104/47 201/79/47 243/82/47 260/105/47
f 206/89/48 234/108/48 253/109/48 252/90/48
f 212/45/49 213/37/49 272/110/49 258/111/49
f 235/112/50 236/113/50 269/114/50 268/115/50
f 208/46/51 212/45/51 258/111/51 257/92/51
f 230/94/52 235/112/52 268/115/52 279/95/52
f 213/37/53 214/26/53 273/116/53 272/110/53
f 236/113/54 237/49/54 261/117/54 269/114/54
f 214/26/55 205/25/55 266/91/55 273/116/55
f 237/49/56 215/13/56 262/118/56 261/117/56
f 215/13/57 216/6/57 274/62/57 262/118/57
f 238/31/58 207/41/58 267/93/58 264/51/58
f 217/54/59 218/67/59 241/70/59 254/55/59
f 33/119/60 6/120/60 305/121/60 304/122/60
f 237/49/61 236/113/61 357/123/61 358/50/61
f 201/79/62 211/104/62 343/124/62 324/125/62
f 6/120/63 5/126/63 302/127/63 305/121/63
f 235/112/64 230/94/64 351/128/64 356/129/64
f 211/104/65 210/97/65 342/130/65 343/124/65
f 34/131/66 33/119/66 304/122/66 303/132/66
f 236/113/67 235/112/67 356/129/67 357/123/67
f 209/96/68 204/85/68 322/133/68 341/134/68
f 32/135/69 34/131/69 303/132/69 298/136/69
f 234/108/70 206/89/70 338/137/70 355/138/70
f 210/97/71 209/96/71 341/134/71 342/130/71
f 233/106/72 234/108/72 355/138/72 354/139/72
f 208/46/73 207/41/73 339/42/73 340/47/73
f 5/126/74 3/140/74 301/141/74 302/127/74
f 232/102/75 233/106/75 354/139/75 353/142/75
f 206/89/76 205/25/76 337/28/76 338/137/76
f 3/140/77 1/143/77 300/144/77 301/141/77
f 231/100/78 232/102/78 353/142/78 352/145/78
f 29/146/79 28/147/79 320/148/79 296/149/79
f 204/85/80 203/59/80 321/150/80 322/133/80
f 218/67/81 217/54/81 348/151/81 330/152/81
f 68/153/82 70/154/82 290/155/82 289/156/82
f 13/157/83 31/158/83 299/159/83 311/160/83
f 217/54/84 219/53/84 349/161/84 348/151/84
f 69/34/85 68/153/85 289/156/85 284/35/85
f 14/162/86 13/157/86 311/160/86 312/163/86
f 203/59/87 220/58/87 334/164/87 321/150/87
f 70/154/88 72/165/88 291/166/88 290/155/88
f 15/167/89 14/162/89 312/163/89 313/168/89
f 220/58/90 221/63/90 333/169/90 334/164/90
f 18/170/91 15/167/91 313/168/91 314/171/91
f 221/63/92 222/65/92 332/172/92 333/169/92
f 72/165/93 71/43/93 281/44/93 291/166/93
f 19/22/94 18/170/94 314/171/94 286/23/94
f 223/68/95 218/67/95 330/152/95 331/173/95
f 73/174/96 75/175/96 293/176/96 292/177/96
f 24/178/97 37/179/97 316/180/97 315/181/97
f 224/71/98 223/68/98 331/173/98 329/182/98
f 222/65/99 225/73/99 328/183/99 332/172/99
f 74/10/100 73/174/100 292/177/100 288/11/100
f 27/2/101 24/178/101 315/181/101 310/3/101
f 225/73/102 224/71/102 329/182/102 328/183/102
f 75/175/103 79/184/103 294/185/103 293/176/103
f 37/179/104 39/186/104 317/187/104 316/180/104
f 227/76/105 226/75/105 326/188/105 327/189/105
f 79/184/106 78/21/106 285/24/106 294/185/106
f 226/75/107 228/83/107 323/190/107 326/188/107
f 39/186/108 38/191/108 295/192/108 317/187/108
f 228/83/109 229/87/109 350/193/109 323/190/109
f 38/191/110 29/146/110 296/149/110 295/192/110
f 22/194/111 20/9/111 287/12/111 318/195/111
f 229/87/112 202/80/112 325/196/112 350/193/112
f 30/197/113 32/135/113 298/136/113 297/198/113
f 25/199/114 22/194/114 318/195/114 319/200/114
f 230/94/115 227/76/115 327/189/115 351/128/115
f 31/158/116 30/197/116 297/198/116 299/159/116
f 202/80/117 201/79/117 324/125/117 325/196/117
f 28/147/118 25/199/118 319/200/118 320/148/118
f 219/53/119 231/100/119 352/145/119 349/161/119
f 1/143/120 80/33/120 283/36/120 300/144/120
s 1
f 36/201/121 26/202/122 34/203/123 32/204/124
f 65/205/125 51/206/126 11/207/127 71/208/128
f 26/202/122 21/209/129 33/210/130 34/203/123
f 58/211/131 59/212/132 1/213/133 3/214/134
f 56/215/135 66/216/136 69/217/137 80/218/138
f 48/219/139 47/220/140 14/221/141 15/222/142
f 46/223/143 49/224/144 18/225/145 19/226/146
f 49/224/144 48/227/139 15/228/142 18/225/145
f 35/229/147 36/201/121 32/204/124 30/230/148
f 57/231/149 58/232/131 3/233/134 5/234/150
f 55/235/151 57/231/149 5/234/150 6/236/152
f 61/237/153 63/238/154 73/239/155 74/240/156
f 77/241/157 67/242/158 72/243/159 70/244/160
f 7/245/161 2/246/162 38/247/163 39/248/164
f 43/249/165 44/250/166 22/251/167 25/252/168
f 23/253/169 35/229/147 30/230/148 31/254/170
f 60/255/171 46/223/143 19/226/146 78/256/172
f 44/250/166 41/257/173 20/258/174 22/251/167
f 21/209/129 55/235/151 6/236/152 33/210/130
f 16/259/175 17/260/176 37/261/177 24/262/178
f 81/263/179 107/264/180 129/265/181 160/266/182 102/267/183 99/268/184 106/269/185 103/270/186 131/271/187 146/272/188 143/273/189 116/274/190 113/275/191 134/276/192 128/277/193 125/278/194 150/279/195 147/280/196 124/281/197 121/282/198 138/283/199 135/284/200 157/285/201 142/286/202 139/287/203 156/288/204 153/289/205 88/290/206 85/291/207 120/292/208 117/293/209 152/294/210 98/295/211 95/296/212 94/297/213 91/298/214 109/299/215 111/300/216 90/301/217 84/302/218
f 41/257/173 61/237/153 74/240/156 20/258/174
f 52/303/219 50/304/220 12/305/221 8/306/222
f 64/307/223 62/308/224 79/309/225 75/310/226
f 40/311/227 42/312/228 28/313/229 29/314/230
f 42/312/228 43/315/165 25/316/168 28/313/229
f 66/216/136 76/317/231 68/318/232 69/217/137
f 54/319/233 53/320/234 9/321/235 10/322/236
f 53/323/234 52/303/219 8/306/222 9/324/235
f 51/206/126 54/319/233 10/322/236 11/207/127
f 67/242/158 65/205/125 71/208/128 72/243/159
f 76/317/231 77/241/157 70/244/160 68/318/232
f 17/260/176 7/245/161 39/248/164 37/261/177
f 4/325/237 16/259/175 24/262/178 27/326/238
f 62/308/224 60/255/171 78/256/172 79/309/225
f 2/246/162 40/311/227 29/314/230 38/247/163
f 50/304/220 4/325/237 27/326/238 12/305/221
f 59/212/132 56/215/135 80/218/138 1/213/133
f 63/238/154 64/307/223 75/310/226 73/239/155
f 47/220/140 45/327/239 13/328/240 14/221/141
f 45/327/239 23/253/169 31/254/170 13/328/240
f 81/329/179 82/330/241 83/331/242 84/332/218
f 85/333/207 86/334/243 87/335/244 88/336/206
f 84/332/218 83/331/242 89/337/245 90/338/217
f 91/339/214 92/340/246 93/341/247 94/342/213
f 95/343/212 96/344/248 97/345/249 98/346/211
f 99/347/184 100/348/250 101/349/251 102/350/183
f 103/351/186 104/352/252 105/353/253 106/354/185
f 106/354/185 105/353/253 100/355/250 99/356/184
f 107/357/180 108/358/254 82/330/241 81/329/179
f 109/359/215 110/360/255 92/361/246 91/362/214
f 111/363/216 112/364/256 110/360/255 109/359/215
f 113/365/191 114/366/257 115/367/258 116/368/190
f 117/369/209 118/370/259 119/371/260 120/372/208
f 121/373/198 122/374/261 123/375/262 124/376/197
f 125/377/194 126/378/263 127/379/264 128/380/193
f 129/381/181 130/382/265 108/358/254 107/357/180
f 131/383/187 132/384/266 104/352/252 103/351/186
f 128/380/193 127/379/264 133/385/267 134/386/192
f 90/338/217 89/337/245 112/364/256 111/363/216
f 135/387/200 136/388/268 137/389/269 138/390/199
f 134/386/192 133/385/267 114/366/257 113/365/191
f 139/391/203 140/392/270 141/393/271 142/394/202
f 143/395/189 144/396/272 145/397/273 146/398/188
f 147/399/196 148/400/274 149/401/275 150/402/195
f 150/402/195 149/401/275 126/403/263 125/404/194
f 98/346/211 97/345/249 151/405/276 152/406/210
f 153/407/205 154/408/277 155/409/278 156/410/204
f 156/411/204 155/412/278 140/392/270 139/391/203
f 88/336/206 87/335/244 154/408/277 153/407/205
f 120/372/208 119/371/260 86/334/243 85/333/207
f 152/406/210 151/405/276 118/370/259 117/369/209
f 138/390/199 137/389/269 122/374/261 121/373/198
f 157/413/201 158/414/279 136/388/268 135/387/200
f 146/398/188 145/397/273 132/384/266 131/383/187
f 124/376/197 123/375/262 148/400/274 147/399/196
f 142/394/202 141/393/271 158/414/279 157/413/201
f 94/342/213 93/341/247 96/344/248 95/343/212
f 116/368/190 115/367/258 144/396/272 143/395/189
f 102/350/183 101/349/251 159/415/280 160/416/182
f 160/416/182 159/415/280 130/382/265 129/381/181
f 96/344/248 93/341/247 247/417/281 248/418/282
f 7/419/161 17/420/176 138/283/199 121/282/198
f 64/421/223 63/422/154 116/274/190 143/273/189
f 60/423/171 62/424/224 146/272/188 131/271/187
f 104/352/252 132/384/266 266/425/283 252/426/284
f 76/427/231 66/428/136 98/295/211 152/294/210
f 87/335/244 86/334/243 243/429/285 244/430/286
f 40/431/227 2/432/162 124/281/197 147/280/196
f 42/433/228 40/431/227 147/280/196 150/279/195
f 26/434/122 36/435/121 81/263/179 84/302/218
f 77/436/157 76/427/231 152/294/210 117/293/209
f 65/437/125 67/438/158 120/292/208 85/291/207
f 43/439/165 42/433/228 150/279/195 125/278/194
f 126/403/263 149/401/275 275/440/287 263/441/288
f 44/442/166 43/439/165 125/278/194 128/277/193
f 158/414/279 141/393/271 271/443/289 279/444/290
f 41/445/173 44/442/166 128/277/193 134/276/192
f 82/330/241 108/358/254 254/446/291 241/447/292
f 62/424/224 64/421/223 143/273/189 146/272/188
f 61/448/153 41/445/173 134/276/192 113/275/191
f 49/449/144 46/450/143 103/270/186 106/269/185
f 108/358/254 130/382/265 265/451/293 254/446/291
f 46/450/143 60/423/171 131/271/187 103/270/186
f 48/452/139 49/449/144 106/269/185 99/268/184
f 148/400/274 123/375/262 262/453/294 274/454/295
f 67/438/158 77/436/157 117/293/209 120/292/208
f 47/455/140 48/452/139 99/268/184 102/267/183
f 149/401/275 148/400/274 274/454/295 275/440/287
f 66/428/136 56/456/135 95/296/212 98/295/211
f 45/457/239 47/455/140 102/267/183 160/266/182
f 83/331/242 82/330/241 241/447/292 242/458/296
f 51/459/126 65/437/125 85/291/207 88/290/206
f 23/460/169 45/457/239 160/266/182 129/265/181
f 100/355/250 105/353/253 253/461/297 250/462/298
f 4/463/237 50/464/220 142/286/202 157/285/201
f 132/384/266 145/397/273 273/465/299 266/425/283
f 16/466/175 4/463/237 157/285/201 135/284/200
f 54/467/233 51/459/126 88/290/206 153/289/205
f 127/379/264 126/378/263 263/468/288 264/469/300
f 136/388/268 158/414/279 279/444/290 268/470/301
f 53/471/234 54/467/233 153/289/205 156/288/204
f 105/353/253 104/352/252 252/426/284 253/461/297
f 52/472/219 53/471/234 156/288/204 139/287/203
f 145/397/273 144/396/272 272/473/302 273/465/299
f 17/420/176 16/466/175 135/284/200 138/283/199
f 2/432/162 7/419/161 121/282/198 124/281/197
f 50/464/220 52/472/219 139/287/203 142/286/202
f 35/474/147 23/460/169 129/265/181 107/264/180
f 55/475/151 21/476/129 90/301/217 111/300/216
f 122/374/261 137/389/269 269/477/303 261/478/304
f 57/479/149 55/475/151 111/300/216 109/299/215
f 123/375/262 122/374/261 261/478/304 262/453/294
f 101/349/251 100/348/250 250/480/298 251/481/305
f 58/482/131 57/479/149 109/299/215 91/298/214
f 36/435/121 35/474/147 107/264/180 81/263/179
f 21/476/129 26/434/122 84/302/218 90/301/217
f 63/422/154 61/448/153 113/275/191 116/274/190
f 59/483/132 58/482/131 91/298/214 94/297/213
f 56/456/135 59/483/132 94/297/213 95/296/212
f 141/393/271 140/392/270 270/484/306 271/443/289
f 118/370/259 151/405/276 276/485/307 259/486/308
f 161/487/309 162/488/310 163/489/311 164/490/312 165/491/313 166/492/314 167/493/315 168/494/316 169/495/317 170/496/318 171/497/319 172/498/320 173/499/321 174/500/322 175/501/323 176/502/324 177/503/325 178/504/326 179/505/327 180/506/328 181/507/329 182/508/330 183/509/331 184/510/332 185/511/333 186/512/334 187/513/335 188/514/336 189/515/337 190/516/338 191/517/339 192/518/340 193/519/341 194/520/342 195/521/343 196/522/344 197/523/345 198/524/346 199/525/347 200/526/348
f 147/527/196 150/528/195 185/529/333 184/530/332
f 129/531/181 107/532/180 200/533/348 199/534/347
f 142/535/202 157/536/201 179/537/327 178/538/326
f 134/539/192 113/540/191 189/541/337 188/542/336
f 81/543/179 84/544/218 162/545/310 161/546/309
f 120/547/208 85/548/207 173/549/321 172/550/320
f 150/528/195 125/551/194 186/552/334 185/529/333
f 107/532/180 81/543/179 161/546/309 200/533/348
f 95/553/212 98/554/211 169/555/317 168/556/316
f 94/557/213 95/553/212 168/556/316 167/558/315
f 117/559/209 120/547/208 172/550/320 171/560/319
f 152/561/210 117/559/209 171/560/319 170/562/318
f 131/563/187 103/564/186 194/565/342 193/566/341
f 98/554/211 152/561/210 170/562/318 169/555/317
f 116/567/190 143/568/189 191/569/339 190/570/338
f 139/571/203 142/535/202 178/538/326 177/572/325
f 85/548/207 88/573/206 174/574/322 173/549/321
f 138/575/199 121/576/198 182/577/330 181/578/329
f 109/579/215 91/580/214 166/581/314 165/582/313
f 128/583/193 134/539/192 188/542/336 187/584/335
f 99/585/184 102/586/183 197/587/345 196/588/344
f 121/576/198 124/589/197 183/590/331 182/577/330
f 102/586/183 160/591/182 198/592/346 197/587/345
f 84/544/218 90/593/217 163/594/311 162/545/310
f 157/536/201 135/595/200 180/596/328 179/537/327
f 111/597/216 109/579/215 165/582/313 164/598/312
f 90/593/217 111/597/216 164/598/312 163/594/311
f 153/599/205 156/600/204 176/601/324 175/602/323
f 143/568/189 146/603/188 192/604/340 191/569/339
f 160/591/182 129/531/181 199/534/347 198/592/346
f 146/603/188 131/563/187 193/566/341 192/604/340
f 103/564/186 106/605/185 195/606/343 194/565/342
f 156/607/204 139/571/203 177/572/325 176/608/324
f 125/609/194 128/583/193 187/584/335 186/610/334
f 91/611/214 94/557/213 167/558/315 166/612/314
f 113/540/191 116/567/190 190/570/338 189/541/337
f 124/589/197 147/527/196 184/530/332 183/590/331
f 135/595/200 138/575/199 181/578/329 180/596/328
f 106/605/185 99/613/184 196/614/344 195/606/343
f 88/573/206 153/599/205 175/602/323 174/574/322
f 151/405/276 97/345/249 249/615/349 276/485/307
f 92/361/246 110/360/255 255/616/350 246/617/351
f 133/385/267 127/379/264 264/469/300 267/618/352
f 89/337/245 83/331/242 242/458/296 245/619/353
f 144/396/272 115/367/258 258/620/354 272/473/302
f 110/360/255 112/364/256 256/621/355 255/616/350
f 159/415/280 101/349/251 251/481/305 280/622/356
f 155/409/278 154/408/277 277/623/357 278/624/358
f 112/364/256 89/337/245 245/619/353 256/621/355
f 93/341/247 92/340/246 246/625/351 247/417/281
f 115/367/258 114/366/257 257/626/359 258/620/354
f 130/382/265 159/415/280 280/622/356 265/451/293
f 140/392/270 155/412/278 278/627/358 270/484/306
f 137/389/269 136/388/268 268/470/301 269/477/303
f 154/408/277 87/335/244 244/430/286 277/623/357
f 97/345/249 96/344/248 248/418/282 249/615/349
f 114/366/257 133/385/267 267/618/352 257/626/359
f 119/371/260 118/370/259 259/486/308 260/628/360
f 86/334/243 119/371/260 260/628/360 243/429/285
f 284/629/361 289/630/362 341/631/363 322/632/364
f 311/633/365 299/634/366 349/635/367 352/636/368
f 289/630/362 290/637/369 342/638/370 341/631/363
f 307/639/371 310/640/372 351/641/373 327/642/374
f 287/643/375 288/644/376 340/645/377 339/646/378
f 282/647/379 309/648/380 350/649/381 325/650/382
f 285/651/383 286/652/384 338/653/385 337/654/386
f 309/648/380 308/655/387 323/656/388 350/649/381
f 283/657/389 284/629/361 322/632/364 321/658/390
f 308/659/387 306/660/391 326/661/392 323/662/388
f 281/663/393 282/647/379 325/650/382 324/664/394
f 306/660/391 307/639/371 327/642/374 326/661/392
f 304/665/395 305/666/396 328/667/397 329/668/398
f 305/666/396 302/669/399 332/670/400 328/667/397
f 303/671/401 304/665/395 329/668/398 331/672/402
f 298/673/403 303/671/401 331/672/402 330/674/404
f 302/669/399 301/675/405 333/676/406 332/670/400
f 301/677/405 300/678/407 334/679/408 333/680/406
f 296/681/409 320/682/410 336/683/411 335/684/412
f 312/685/413 311/633/365 352/636/368 353/686/414
f 290/637/369 291/687/415 343/688/416 342/638/370
f 313/689/417 312/685/413 353/686/414 354/690/418
f 314/691/419 313/692/417 354/693/418 355/694/420
f 291/687/415 281/663/393 324/664/394 343/688/416
f 286/652/384 314/691/419 355/694/420 338/653/385
f 292/695/421 293/696/422 345/697/423 344/698/424
f 315/699/425 316/700/426 357/701/427 356/702/428
f 288/644/376 292/695/421 344/698/424 340/645/377
f 310/640/372 315/699/425 356/702/428 351/641/373
f 293/696/422 294/703/429 346/704/430 345/697/423
f 316/700/426 317/705/431 358/706/432 357/701/427
f 294/703/429 285/651/383 337/654/386 346/704/430
f 317/705/431 295/707/433 347/708/434 358/706/432
f 295/707/433 296/681/409 335/684/412 347/708/434
f 318/709/435 287/643/375 339/646/378 359/710/436
f 297/711/437 298/673/403 330/674/404 348/712/438
f 319/713/439 318/709/435 359/710/436 360/714/440
f 299/634/366 297/711/437 348/712/438 349/635/367
f 320/682/410 319/715/439 360/716/440 336/683/411
f 300/678/407 283/657/389 321/658/390 334/679/408
